HIERARCHY
ROOT hip
{
	OFFSET 0.000000 0.000000 0.000000 
	CHANNELS 6 Xposition Yposition Zposition Xrotation Zrotation Yrotation
	JOINT abdomen
	{
		OFFSET 0.000000 3.402643 0.000000 
		CHANNELS 3 Xrotation Zrotation Yrotation
		JOINT chest
		{
			OFFSET 0.000000 8.438565 -0.680529 
			CHANNELS 3 Xrotation Zrotation Yrotation
			JOINT neck
			{
				OFFSET 0.000000 10.207942 -0.272212 
				CHANNELS 3 Xrotation Zrotation Yrotation
				JOINT head
				{
					OFFSET 0.000000 3.130431 0.000000 
					CHANNELS 3 Xrotation Zrotation Yrotation
					End Site
					{
						OFFSET 0.000000 3.130435 0.000000 
					}
				}
			}
			JOINT lCollar
			{
				OFFSET 3.470700 6.669187 -0.816635 
				CHANNELS 3 Yrotation Zrotation Xrotation
				JOINT lShldr
				{
					OFFSET 3.198488 0.000000 0.000000 
					CHANNELS 3 Zrotation Yrotation Xrotation
					JOINT lForeArm
					{
						OFFSET 10.139888 0.000000 0.000000 
						CHANNELS 3 Yrotation Zrotation Xrotation
						JOINT lHand
						{
							OFFSET 8.370511 0.000000 0.000000 
							CHANNELS 3 Zrotation Yrotation Xrotation
							End Site
							{
								OFFSET 4.083176 0.000000 0.000000 
							}
						}
					}
				}
			}
			JOINT rCollar
			{
				OFFSET -3.470700 6.669187 -0.816635 
				CHANNELS 3 Yrotation Zrotation Xrotation
				JOINT rShldr
				{
					OFFSET -3.198488 0.000000 0.000000 
					CHANNELS 3 Zrotation Yrotation Xrotation
					JOINT rForeArm
					{
						OFFSET -10.139888 0.000000 0.000000 
						CHANNELS 3 Yrotation Zrotation Xrotation
						JOINT rHand
						{
							OFFSET -8.370511 0.000000 0.000000 
							CHANNELS 3 Zrotation Yrotation Xrotation
							End Site
							{
								OFFSET -4.083176 0.000000 0.000000 
							}
						}
					}
				}
			}
		}
	}
	JOINT lThigh
	{
		OFFSET 5.308129 -1.633274 1.361059 
		CHANNELS 3 Xrotation Zrotation Yrotation
		JOINT lShin
		{
			OFFSET -2.041588 -20.007561 0.000000 
			CHANNELS 3 Xrotation Zrotation Yrotation
			JOINT lFoot
			{
				OFFSET 0.000000 -19.190928 -1.224953 
				CHANNELS 3 Xrotation Yrotation Zrotation
				End Site
				{
					OFFSET 0.000000 -2.449906 4.627600 
				}
			}
		}
	}
	JOINT rThigh
	{
		OFFSET -5.308129 -1.633274 1.361059 
		CHANNELS 3 Xrotation Zrotation Yrotation
		JOINT rShin
		{
			OFFSET 2.041588 -20.007561 0.000000 
			CHANNELS 3 Xrotation Zrotation Yrotation
			JOINT rFoot
			{
				OFFSET 0.000000 -19.190928 -1.224953 
				CHANNELS 3 Xrotation Yrotation Zrotation
				End Site
				{
					OFFSET 0.000000 -2.449906 4.627600 
				}
			}
		}
	}
}
MOTION
Frames: 6
Frame Time: 0.016667
0.437721 47.463810 0.044656 9.845931 8.421456 -12.202783 0.000000 0.000000 0.000000 9.441093 -7.213295 4.596723 13.827932 0.283203 -0.039062 -32.963097 1.043501 2.988852 -37.144371 29.996832 24.990538 -99.002213 -17.447325 -3.959612 -80.048767 -21.117384 110.319695 -62.530800 -31.934649 -3.115249 15.435449 -30.000000 25.000000 96.208115 39.085476 80.686592 17.037378 -46.367435 29.636242 32.350712 -0.544761 -80.495239 -32.894299 9.986066 17.129091 47.180794 2.320646 -1.528873 -1.141970 -1.682419 -34.069275 -38.054329 -15.585211 -2.024595 37.612095 1.601360 2.736544 10.267242 7.854894 25.183302 
0.437721 47.463810 0.044656 9.845931 8.421456 -12.202783 0.000000 0.000000 0.000000 9.441093 -7.213295 4.596723 13.827932 0.283203 -0.039062 -32.963097 1.043501 2.988852 -37.144371 29.996832 24.990538 -99.002213 -17.447325 -3.959612 -80.048767 -21.117384 110.319695 -62.530800 -31.934649 -3.115249 15.435449 -30.000000 25.000000 96.208115 39.085476 80.686592 17.037378 -46.367435 29.636242 32.350712 -0.544761 -80.495239 -32.894299 9.986066 17.129091 47.180794 2.320646 -1.528873 -1.141970 -1.682419 -34.069275 -38.054329 -15.585211 -2.024595 37.612095 1.601360 2.736544 10.267242 7.854894 25.183302 
0.859374 47.767136 -0.700426 12.923090 8.786880 -13.777115 0.000000 0.000000 0.000000 8.818110 -6.774129 4.710664 21.200239 0.781249 -0.068353 -28.915718 0.634686 0.908364 -39.254848 30.000000 24.991835 -93.114967 -19.011791 -6.262743 -86.125069 -23.281803 115.264565 -63.606644 -46.061024 5.859737 18.255770 -30.000000 24.998789 97.708755 42.787350 80.498131 22.916843 -48.401054 39.028099 31.035635 0.761665 -80.330635 -36.741032 10.854732 16.670649 48.600838 2.437954 -1.566492 1.129472 -2.587237 -35.156002 -42.194294 -14.833181 -1.527176 37.011063 2.245960 2.816890 13.137515 8.575662 24.831045 
1.281002 48.070435 -1.445463 15.997337 9.225899 -15.338574 0.000000 0.000000 0.000000 8.187113 -6.335081 4.823762 28.573120 1.289062 -0.048816 -24.851604 0.380778 -1.181615 -41.364952 29.994701 24.988588 -87.130592 -20.353104 -8.742274 -92.095993 -25.928755 120.022423 -69.412491 -59.781345 18.806997 21.078695 -30.000000 24.994440 99.295410 46.496414 80.432907 29.427559 -49.725906 49.016541 29.733944 2.079586 -80.202522 -40.611832 11.697006 16.164499 49.991718 2.544678 -1.614322 3.369766 -3.527362 -36.224064 -46.312473 -14.051124 -1.069713 36.389168 2.899870 2.872352 16.020954 9.264531 24.440334 
1.663395 48.070450 -1.710739 16.090214 9.166078 -16.257607 0.000000 0.000000 0.000000 8.988378 -6.062351 4.850805 38.003635 1.884761 -0.126884 -20.177652 0.263415 -2.529315 -42.233288 29.999273 24.988976 -79.241043 -21.946823 -11.708718 -96.304321 -28.610094 124.503326 -56.112377 -70.070534 5.157805 22.682379 -30.000000 24.999176 97.009949 49.062504 79.132263 34.775871 -51.541969 58.347088 28.620947 4.877304 -79.980324 -40.468060 11.396401 16.097664 51.370705 2.498020 -1.681374 3.221729 -2.359764 -37.388775 -47.322857 -14.082026 -1.017419 38.090523 2.900013 3.058522 16.665194 8.931668 24.732132 
2.045764 48.070457 -1.975989 16.171717 9.113445 -17.176529 0.000000 0.000000 0.000000 9.779982 -5.779826 4.887671 47.436733 2.490230 -0.107320 -15.506109 0.263068 -3.876957 -43.108032 29.993925 24.988123 -71.195061 -23.148029 -14.907873 -100.380661 -31.586992 128.875656 -22.553314 -77.462906 -28.732218 24.289335 -30.000000 24.997351 94.507469 51.584728 77.603683 40.718922 -52.760796 68.230057 27.522696 7.674051 -79.809586 -40.314552 11.088841 16.038874 52.758255 2.456696 -1.767044 3.092599 -1.182577 -38.590775 -48.321762 -14.109017 -0.972861 39.781769 2.909968 3.229042 17.312935 8.615409 25.029860 
